<?xml version="1.0" encoding="iso-8859-1"?>
<!-- Generator: Adobe Illustrator 19.0.0, SVG Export Plug-In . SVG Version: 6.00 Build 0)  -->
<svg xmlns="http://www.w3.org/2000/svg" xmlns:xlink="http://www.w3.org/1999/xlink" version="1.1" id="Layer_1" x="0px" y="0px" viewBox="0 0 512 512" style="enable-background:new 0 0 512 512;" xml:space="preserve" width="512px" height="512px">
<g>
	<g>
		<path d="M503.467,85.333h-25.6v-25.6c0-4.71-3.823-8.533-8.533-8.533h-68.267c-4.71,0-8.533,3.823-8.533,8.533v25.6H358.4v-25.6    c0-4.71-3.823-8.533-8.533-8.533H281.6c-4.71,0-8.533,3.823-8.533,8.533v25.6h-34.133v-25.6c0-4.71-3.823-8.533-8.533-8.533    h-68.267c-4.71,0-8.533,3.823-8.533,8.533v25.6h-34.133v-25.6c0-4.71-3.823-8.533-8.533-8.533H42.667    c-4.71,0-8.533,3.823-8.533,8.533v25.6h-25.6C3.823,85.333,0,89.156,0,93.867v358.4c0,4.71,3.823,8.533,8.533,8.533h494.933    c4.71,0,8.533-3.823,8.533-8.533v-358.4C512,89.156,508.177,85.333,503.467,85.333z M494.933,443.733H17.067v-102.4h452.267    c4.71,0,8.533-3.823,8.533-8.533s-3.823-8.533-8.533-8.533H17.067v-102.4h452.267c4.71,0,8.533-3.823,8.533-8.533    s-3.823-8.533-8.533-8.533H17.067V102.4h25.6H76.8c4.71,0,8.533-3.823,8.533-8.533s-3.823-8.533-8.533-8.533H51.2V68.267h51.2    v25.6c0,4.71,3.823,8.533,8.533,8.533h51.2h34.133c4.71,0,8.533-3.823,8.533-8.533s-3.823-8.533-8.533-8.533h-25.6V68.267h51.2    v25.6c0,4.71,3.823,8.533,8.533,8.533h51.2h34.133c4.71,0,8.533-3.823,8.533-8.533s-3.823-8.533-8.533-8.533h-25.6V68.267h51.2    v25.6c0,4.71,3.823,8.533,8.533,8.533h51.2H435.2c4.71,0,8.533-3.823,8.533-8.533s-3.823-8.533-8.533-8.533h-25.6V68.267h51.2    v25.6c0,4.71,3.823,8.533,8.533,8.533h25.6V443.733z" fill="#7a8288"/>
	</g>
</g>
<g>
</g>
<g>
</g>
<g>
</g>
<g>
</g>
<g>
</g>
<g>
</g>
<g>
</g>
<g>
</g>
<g>
</g>
<g>
</g>
<g>
</g>
<g>
</g>
<g>
</g>
<g>
</g>
<g>
</g>
</svg>
