<svg xmlns="http://www.w3.org/2000/svg" viewBox="0 0 1080.911 190.772"><defs><style>.a{fill:#f48024;}.b{fill:#3d3d3d;}.c{fill:#fff;}</style></defs><title>Asset 7</title><path class="a" d="M260.133,58.607a5.225,5.225,0,0,1,1.724-4.31,7.492,7.492,0,0,1,4.848-1.4,12.337,12.337,0,0,1,3.555.485q1.617.484,2.155.7V132.3H260.133Z"/><path class="a" d="M292.24,53.974a7.357,7.357,0,1,1-5.28,2.155A7.181,7.181,0,0,1,292.24,53.974ZM286.1,83.927a5.2,5.2,0,0,1,1.723-4.364,7.71,7.71,0,0,1,4.849-1.347,12.3,12.3,0,0,1,3.555.485q1.617.485,2.155.7v52.9H286.1Z"/><path class="a" d="M355.377,125.515a21.291,21.291,0,0,1-7.434,5.818,24.28,24.28,0,0,1-10.99,2.371,27.984,27.984,0,0,1-10.936-2.1,26.485,26.485,0,0,1-8.727-5.871,26.99,26.99,0,0,1-5.818-9,30.484,30.484,0,0,1-2.1-11.475,29.282,29.282,0,0,1,2.209-11.421,26.954,26.954,0,0,1,6.087-9.051,28.26,28.26,0,0,1,9.212-5.926,30.927,30.927,0,0,1,11.69-2.154,36.045,36.045,0,0,1,11.959,1.885,23.631,23.631,0,0,1,9.158,5.71,25.57,25.57,0,0,1,5.819,9.7,41.8,41.8,0,0,1,2.047,13.738v46.113H355.377Zm0-20.363a19.323,19.323,0,0,0-1.239-7.057,16.477,16.477,0,0,0-3.394-5.441,15.343,15.343,0,0,0-5.226-3.556,17.179,17.179,0,0,0-6.734-1.293,16.126,16.126,0,0,0-12.013,5.01,15.933,15.933,0,0,0-3.394,5.5,19.409,19.409,0,0,0-1.185,6.842,20.165,20.165,0,0,0,1.185,7,16.368,16.368,0,0,0,3.394,5.6A15.914,15.914,0,0,0,332,121.475a17.639,17.639,0,0,0,13.521,0,15.218,15.218,0,0,0,5.226-3.717,17.605,17.605,0,0,0,3.394-5.6A19.441,19.441,0,0,0,355.377,105.152Z"/><path class="a" d="M378.865,83.927a5.2,5.2,0,0,1,1.724-4.364,7.71,7.71,0,0,1,4.849-1.347,12.312,12.312,0,0,1,3.555.485q1.615.485,2.154.7v28.337q0,7.329,3.449,11.152t10.558,3.825q7.111,0,10.559-3.825t3.448-11.152V83.927a5.2,5.2,0,0,1,1.724-4.364,7.517,7.517,0,0,1,4.74-1.347,12.73,12.73,0,0,1,3.664.485q1.615.485,2.154.7v31.03a24.633,24.633,0,0,1-1.885,9.858,20.138,20.138,0,0,1-5.387,7.381,23.8,23.8,0,0,1-8.35,4.58,37.2,37.2,0,0,1-21.333,0,23.223,23.223,0,0,1-8.3-4.58,20.962,20.962,0,0,1-5.387-7.381,24.035,24.035,0,0,1-1.939-9.858Z"/><path class="a" d="M450.729,53.974a7.359,7.359,0,1,1-5.279,2.155A7.181,7.181,0,0,1,450.729,53.974Zm-6.141,29.953a5.2,5.2,0,0,1,1.724-4.364,7.709,7.709,0,0,1,4.848-1.347,12.31,12.31,0,0,1,3.556.485q1.615.485,2.155.7v52.9H444.588Z"/><path class="a" d="M513.866,58.607a5.309,5.309,0,0,1,1.67-4.31,7.274,7.274,0,0,1,4.8-1.4,12.337,12.337,0,0,1,3.555.485c1.078.323,1.8.558,2.156.7v48.592a38.528,38.528,0,0,1-2.209,13.684,27.088,27.088,0,0,1-6.088,9.7,24.937,24.937,0,0,1-9.158,5.818,33.173,33.173,0,0,1-11.529,1.94,30.951,30.951,0,0,1-11.69-2.155,28.177,28.177,0,0,1-9.212-5.925,26.964,26.964,0,0,1-6.087-9.051,29.282,29.282,0,0,1-2.209-11.421,30.507,30.507,0,0,1,2.1-11.475,27.6,27.6,0,0,1,5.819-9.05,26.121,26.121,0,0,1,8.726-5.926,27.991,27.991,0,0,1,10.936-2.1,23.832,23.832,0,0,1,10.991,2.424A21.876,21.876,0,0,1,513.866,85Zm0,46.653a19.128,19.128,0,0,0-1.239-6.9,17.594,17.594,0,0,0-3.394-5.6,15.241,15.241,0,0,0-5.225-3.717,17.629,17.629,0,0,0-13.522,0,16.336,16.336,0,0,0-5.225,3.662,15.831,15.831,0,0,0-3.394,5.55,20.151,20.151,0,0,0-1.186,7,19.686,19.686,0,0,0,1.186,6.949,15.89,15.89,0,0,0,3.394,5.5,16.121,16.121,0,0,0,12.013,5.01,17.183,17.183,0,0,0,6.734-1.294,15.31,15.31,0,0,0,5.225-3.556,16.323,16.323,0,0,0,3.394-5.494A19.735,19.735,0,0,0,513.866,105.26Z"/><path class="b" d="M536.493,108.277q0-2.586.162-4.579t.376-3.5a30.311,30.311,0,0,1,3.34-9.483A24.85,24.85,0,0,1,546.3,83.6a25.821,25.821,0,0,1,8.187-4.471,31.2,31.2,0,0,1,10.02-1.563,29.62,29.62,0,0,1,11.53,2.209,27.037,27.037,0,0,1,14.922,14.976,29.809,29.809,0,0,1,0,21.981,27.473,27.473,0,0,1-5.872,8.942,26.7,26.7,0,0,1-9.05,5.98,30.271,30.271,0,0,1-11.53,2.155,26.472,26.472,0,0,1-12.389-2.855,21.965,21.965,0,0,1-8.514-7.489v30.383h-7.11Zm48.915-2.586a25.09,25.09,0,0,0-1.454-8.566,19.893,19.893,0,0,0-10.775-11.69,20.907,20.907,0,0,0-8.673-1.724,21.2,21.2,0,0,0-8.564,1.67,19.259,19.259,0,0,0-6.52,4.579,20.786,20.786,0,0,0-4.2,6.95,24.907,24.907,0,0,0-1.508,8.781,24.273,24.273,0,0,0,1.508,8.565A20.525,20.525,0,0,0,556.049,126a19.813,19.813,0,0,0,8.457,1.778,21.459,21.459,0,0,0,8.673-1.671,19.1,19.1,0,0,0,6.573-4.687,20.918,20.918,0,0,0,4.2-7A25.271,25.271,0,0,0,585.408,105.691Z"/><path class="b" d="M639.818,82.957a3.34,3.34,0,0,1-.593,1.939,10.08,10.08,0,0,1-1.13,1.4,28.57,28.57,0,0,0-4.635-1.616,25.468,25.468,0,0,0-6.571-.754A21.827,21.827,0,0,0,619.508,85a11.381,11.381,0,0,0-4.8,3.178,12.135,12.135,0,0,0-2.586,5.226,30.423,30.423,0,0,0-.753,7.111V132.3h-7.112V97.18q0-9.377,5.6-14.493t16.378-5.118a31.086,31.086,0,0,1,9.7,1.293Q639.82,80.157,639.818,82.957Z"/><path class="b" d="M701.017,105.691A27.68,27.68,0,0,1,683.778,131.6a31.19,31.19,0,0,1-23.058,0,28.23,28.23,0,0,1-9.1-45.9,27.308,27.308,0,0,1,9.1-5.979,31.9,31.9,0,0,1,23.058,0,27.334,27.334,0,0,1,9.1,5.979,27.771,27.771,0,0,1,5.98,8.943A28.188,28.188,0,0,1,701.017,105.691Zm-7.65,0a24.61,24.61,0,0,0-1.509-8.673,21.125,21.125,0,0,0-4.309-7.058,19.613,19.613,0,0,0-6.681-4.687,23.077,23.077,0,0,0-17.238,0,19.58,19.58,0,0,0-6.68,4.687,21.047,21.047,0,0,0-4.31,7.058,24.565,24.565,0,0,0-1.508,8.673,23.525,23.525,0,0,0,1.561,8.565,21.638,21.638,0,0,0,4.311,7,19.94,19.94,0,0,0,6.626,4.688,22.419,22.419,0,0,0,17.238,0,20.251,20.251,0,0,0,10.99-11.691A24.3,24.3,0,0,0,693.367,105.691Z"/><path class="b" d="M712.76,82.741a3.393,3.393,0,0,1,3.878-3.663,6.719,6.719,0,0,1,1.887.269,9.026,9.026,0,0,1,1.346.485v57.212a21.571,21.571,0,0,1-1.508,8.62,14.553,14.553,0,0,1-3.987,5.494,14.935,14.935,0,0,1-5.656,2.91,24.823,24.823,0,0,1-6.519.862,27.477,27.477,0,0,1-6.518-.7,38.4,38.4,0,0,1-4.256-1.239l2.047-4.955a19.275,19.275,0,0,0,7.541,1.507,21.208,21.208,0,0,0,4.257-.43,9.46,9.46,0,0,0,3.77-1.67,8.649,8.649,0,0,0,2.695-3.609,16.013,16.013,0,0,0,1.023-6.249Zm8.727-22.518a5.332,5.332,0,0,1-5.279,5.279,4.893,4.893,0,0,1-3.663-1.562,5.155,5.155,0,0,1-1.509-3.717,5.15,5.15,0,0,1,5.172-5.172,5.181,5.181,0,0,1,3.718,1.508A4.915,4.915,0,0,1,721.487,60.223Z"/><path class="b" d="M739.265,110.324q1.183,8.3,6.895,12.822t15.084,4.524a24.665,24.665,0,0,0,9.32-1.562,49.732,49.732,0,0,0,5.871-2.747l3.125,5.171q-.862.541-2.586,1.455a30.228,30.228,0,0,1-4.2,1.778,39.766,39.766,0,0,1-5.6,1.455,37.273,37.273,0,0,1-6.895.592,34.357,34.357,0,0,1-11.15-1.778,26.785,26.785,0,0,1-9.159-5.225,24.364,24.364,0,0,1-6.2-8.512,28.566,28.566,0,0,1-2.262-11.744,31.2,31.2,0,0,1,2.155-11.8A26.783,26.783,0,0,1,739.7,85.6a27.126,27.126,0,0,1,9.212-5.926,31.627,31.627,0,0,1,11.69-2.1,32.265,32.265,0,0,1,9.428,1.24,18.984,18.984,0,0,1,6.733,3.5,14.536,14.536,0,0,1,4.04,5.333,16.308,16.308,0,0,1,1.348,6.626,14.6,14.6,0,0,1-1.455,6.518,13.031,13.031,0,0,1-4.956,5.172,28.772,28.772,0,0,1-9.375,3.448,73.572,73.572,0,0,1-14.813,1.24q-3.45,0-6.3-.055T739.265,110.324Zm-.217-5.6q2.91.218,5.658.269t5.763.055a65.444,65.444,0,0,0,12.068-.916,26.135,26.135,0,0,0,7.489-2.425,9.035,9.035,0,0,0,3.825-3.556,9.135,9.135,0,0,0,1.077-4.309,9.643,9.643,0,0,0-1.239-5.064,9.459,9.459,0,0,0-3.341-3.286,15.311,15.311,0,0,0-4.74-1.778,27.175,27.175,0,0,0-5.441-.539,21.253,21.253,0,0,0-8.943,1.778,19.1,19.1,0,0,0-6.518,4.8,22.177,22.177,0,0,0-4.1,6.895A24.631,24.631,0,0,0,739.048,104.721Z"/><path class="b" d="M818.455,83.711A25.928,25.928,0,0,0,810.1,85a17.542,17.542,0,0,0-6.626,3.986,18.222,18.222,0,0,0-4.364,6.842,27.627,27.627,0,0,0-1.561,9.751,26.342,26.342,0,0,0,1.723,10.02,18.247,18.247,0,0,0,4.686,6.842,19.187,19.187,0,0,0,7,3.933,27.97,27.97,0,0,0,8.566,1.292,24.365,24.365,0,0,0,8.888-1.292,45.939,45.939,0,0,0,4.9-2.262l2.908,5.279a42.431,42.431,0,0,1-7.219,3.07,35.351,35.351,0,0,1-10.775,1.347,33.83,33.83,0,0,1-11.259-1.831,24.394,24.394,0,0,1-14.922-14.116,30.274,30.274,0,0,1-2.154-11.743A32.127,32.127,0,0,1,792.057,94a25.842,25.842,0,0,1,5.927-9,24.746,24.746,0,0,1,9.05-5.549,34.089,34.089,0,0,1,11.528-1.886,33.542,33.542,0,0,1,11.1,1.455,18.853,18.853,0,0,1,4.957,2.317,5.182,5.182,0,0,1,1.292,1.346,3.519,3.519,0,0,1,.539,1.994,4.747,4.747,0,0,1-.592,2.047,5.661,5.661,0,0,1-1.778,2.047,22.815,22.815,0,0,0-5.764-3.34A24.649,24.649,0,0,0,818.455,83.711Z"/><path class="b" d="M851.744,85.543v31.245q0,6.038,3.125,8.512a12.78,12.78,0,0,0,8.189,2.479,16.639,16.639,0,0,0,6.034-1.079,24.467,24.467,0,0,0,4.309-2.047l3.125,4.633a13.811,13.811,0,0,1-1.993,1.294,28,28,0,0,1-3.233,1.508,24.365,24.365,0,0,1-4.417,1.239,29.6,29.6,0,0,1-5.55.485,20.988,20.988,0,0,1-7.434-1.185,14.04,14.04,0,0,1-5.172-3.286,13.493,13.493,0,0,1-3.07-5.01,18.988,18.988,0,0,1-1.024-6.357V68.3a3.393,3.393,0,0,1,3.879-3.663,6.748,6.748,0,0,1,1.886.268,9.1,9.1,0,0,1,1.346.485V79.078h18.964a3.93,3.93,0,0,1,3.123,1.024,3.8,3.8,0,0,1,.862,2.532,5.877,5.877,0,0,1-.215,1.616q-.217.755-.431,1.293Z"/><path class="b" d="M892.146,60.223a5.332,5.332,0,0,1-5.279,5.279A4.9,4.9,0,0,1,883.2,63.94a5.159,5.159,0,0,1-1.509-3.717,5.15,5.15,0,0,1,5.172-5.172,5.178,5.178,0,0,1,3.718,1.508A4.915,4.915,0,0,1,892.146,60.223ZM883.42,82.741a3.393,3.393,0,0,1,3.878-3.663,6.712,6.712,0,0,1,1.886.269,8.984,8.984,0,0,1,1.346.485V132.3h-7.11Z"/><path class="b" d="M959.809,105.691A27.676,27.676,0,0,1,942.57,131.6a31.187,31.187,0,0,1-23.057,0,28.23,28.23,0,0,1-9.1-45.9,27.3,27.3,0,0,1,9.1-5.979,31.9,31.9,0,0,1,23.057,0,27.328,27.328,0,0,1,9.1,5.979,27.771,27.771,0,0,1,5.98,8.943A28.188,28.188,0,0,1,959.809,105.691Zm-7.649,0a24.633,24.633,0,0,0-1.509-8.673,21.125,21.125,0,0,0-4.309-7.058,19.617,19.617,0,0,0-6.682-4.687,23.074,23.074,0,0,0-17.237,0,19.58,19.58,0,0,0-6.68,4.687,21.065,21.065,0,0,0-4.311,7.058,24.587,24.587,0,0,0-1.507,8.673,23.525,23.525,0,0,0,1.561,8.565,21.653,21.653,0,0,0,4.31,7,19.954,19.954,0,0,0,6.627,4.688,22.417,22.417,0,0,0,17.237,0,20.249,20.249,0,0,0,10.991-11.691A24.319,24.319,0,0,0,952.16,105.691Z"/><path class="b" d="M1014,132.3V102.566q0-8.941-4.471-13.9t-13.521-4.956q-9.051,0-13.468,4.956t-4.417,13.9V132.3h-7.112V100.412a24.174,24.174,0,0,1,1.724-9.266,20.262,20.262,0,0,1,4.955-7.219,22.627,22.627,0,0,1,7.867-4.687,30.677,30.677,0,0,1,10.451-1.671,31.162,31.162,0,0,1,10.5,1.671,22.532,22.532,0,0,1,7.918,4.687,20.28,20.28,0,0,1,4.957,7.219,24.211,24.211,0,0,1,1.723,9.266V132.3Z"/><path class="b" d="M1074.446,81.448q3.017,1.725,3.017,3.987a3.735,3.735,0,0,1-.808,2.478,7.132,7.132,0,0,1-1.669,1.508,14.867,14.867,0,0,0-1.887-1.4,22.714,22.714,0,0,0-3.985-1.992,36.762,36.762,0,0,0-6.089-1.778,39.8,39.8,0,0,0-8.187-.755q-7.543,0-11.96,2.1a7.167,7.167,0,0,0-4.418,6.95,6.753,6.753,0,0,0,2.963,5.926,18.576,18.576,0,0,0,8.35,2.693l12.282,1.4a39.514,39.514,0,0,1,8.89,1.993,18.628,18.628,0,0,1,5.819,3.287,11.49,11.49,0,0,1,3.177,4.363,14.1,14.1,0,0,1-5.064,16.97,23.644,23.644,0,0,1-7.488,3.394,39.21,39.21,0,0,1-10.4,1.239,52.941,52.941,0,0,1-9.912-.863,78.359,78.359,0,0,1-7.919-1.885,35.038,35.038,0,0,1-5.442-2.047,22.639,22.639,0,0,1-2.478-1.347l3.017-5.494q.647.323,2.533,1.239a40.477,40.477,0,0,0,4.794,1.885,54.4,54.4,0,0,0,6.787,1.724,44.666,44.666,0,0,0,8.513.755,40.691,40.691,0,0,0,6.464-.486,18.215,18.215,0,0,0,5.279-1.616,9.8,9.8,0,0,0,3.556-2.855,6.977,6.977,0,0,0,1.292-4.309,7.89,7.89,0,0,0-2.693-6.3q-2.694-2.316-10.235-3.179l-11.313-1.292q-8.727-.969-13.307-4.741a12.438,12.438,0,0,1-4.578-10.128,14.118,14.118,0,0,1,1.185-5.657,12.592,12.592,0,0,1,3.932-4.9,21.1,21.1,0,0,1,7.272-3.449,41.447,41.447,0,0,1,11.206-1.293,49.171,49.171,0,0,1,12.121,1.293A34.324,34.324,0,0,1,1074.446,81.448Z"/><path class="c" d="M226.13,29.892c-7.207-10.263-19.977-16.39-34.155-16.39q-1.026,0-2.056.042l-58.443,2.33c-4.848-6.144-8.41-10.12-8.892-10.653L117.868,0l-4.716,5.221c-.51.565-4.48,5-9.769,11.773L45.462,19.3l-.432,0c-12.238,0-28.717,4.17-38.271,15.872-5.914,7.244-8,16.192-6.046,25.88,3.849,21.641,7.759,44,11.608,66.387,3.667,22.875,20.81,40.928,42.708,44.933l103.234,18.006.259.039a40.688,40.688,0,0,0,5.311.354h0c23.8,0,40.28-20.972,44.317-41.756,7.1-27.77,14.389-56.469,21.657-85.31C234.142,51.44,232.839,39.443,226.13,29.892Z"/><path class="b" d="M190.172,19.893,136.2,22.045c3.391,4.557,7.062,9.8,10.6,15.439q22.095.567,44.157,2.194c9.652.766,16.421,9.23,15.535,19.288a500.49,500.49,0,0,1-18.759,89.191c-3.374,9.795-11.939,17.152-19.6,16.85-39.289-.918-79.47-7.161-117.686-16.021-7.689-1.867-15.232-9.885-17.27-18.286-5.59-23.035-9.049-50.078-7.876-73.886.186-7.938,7.984-14.855,17.9-15.879q22.7-2.147,45.469-3.051c3.235-5.176,6.586-10.026,9.744-14.333l-52.85,2.107C26.238,25.443,2.226,36.714,6.955,59.864q5.919,33.269,11.64,66.569c3.156,19.682,17.64,36.044,37.526,39.68l103.234,18.006c22.1,2.925,38.717-16.133,42.594-36.491q10.965-42.865,21.773-85.77C232.548,37.387,214.042,18.918,190.172,19.893Z"/><path class="a" d="M117.867,9.48S77.99,53.63,77.99,83.539a39.878,39.878,0,0,0,79.755,0C157.745,53.63,117.867,9.48,117.867,9.48Zm20.767,80.325c-9.516-2.147-4.887-6.321-5.073-14.058-.23-9.528-2.236-10.9,9.023-10.9C145.2,64.843,156.751,93.891,138.634,89.805Z"/></svg>